<svg width="153" height="24" viewBox="0 0 153 24" fill="none" xmlns="http://www.w3.org/2000/svg">
<g clip-path="url(#clip0_104_9)">
<path d="M6.94 14.036C6.707 14.66 6.51 15.236 6.334 15.819C7.294 15.122 8.435 14.68 9.752 14.515C12.265 14.201 14.498 12.542 15.628 10.457L14.172 9.002L15.585 7.587L16.585 6.586C17.015 6.156 17.5 5.362 18.013 4.218C12.42 5.085 8.995 8.51 6.939 14.036H6.94ZM17 9.001L18 10C17 13 14 16 10 16.5C7.331 16.834 5.664 18.667 4.998 22H3C4 16 6 2 21 2C20 4.997 19.002 6.996 18.003 7.997L17 9.001Z" fill="#374151"/>
</g>
<path d="M31.1136 6.36364L33.9261 15.2045H34.0341L36.8523 6.36364H39.5795L35.5682 18H32.3977L28.3807 6.36364H31.1136ZM40.9347 18V9.27273H43.3551V18H40.9347ZM42.1506 8.14773C41.7907 8.14773 41.482 8.02841 41.2244 7.78977C40.9706 7.54735 40.8438 7.25758 40.8438 6.92045C40.8438 6.58712 40.9706 6.30114 41.2244 6.0625C41.482 5.82008 41.7907 5.69886 42.1506 5.69886C42.5104 5.69886 42.8172 5.82008 43.071 6.0625C43.3286 6.30114 43.4574 6.58712 43.4574 6.92045C43.4574 7.25758 43.3286 7.54735 43.071 7.78977C42.8172 8.02841 42.5104 8.14773 42.1506 8.14773ZM48.5099 18.142C47.8471 18.142 47.2467 17.9716 46.7088 17.6307C46.1747 17.286 45.7505 16.7803 45.4361 16.1136C45.1255 15.4432 44.9702 14.6212 44.9702 13.6477C44.9702 12.6477 45.1312 11.8163 45.4531 11.1534C45.7751 10.4867 46.2031 9.98864 46.7372 9.65909C47.2751 9.32576 47.8641 9.15909 48.5043 9.15909C48.9929 9.15909 49.4001 9.24242 49.7259 9.40909C50.0554 9.57197 50.3205 9.77652 50.5213 10.0227C50.7259 10.2652 50.8812 10.5038 50.9872 10.7386H51.0611V6.36364H53.4759V18H51.0895V16.6023H50.9872C50.8736 16.8447 50.7126 17.0852 50.5043 17.3239C50.2997 17.5587 50.0327 17.7538 49.7031 17.9091C49.3774 18.0644 48.9796 18.142 48.5099 18.142ZM49.277 16.2159C49.6671 16.2159 49.9967 16.1098 50.2656 15.8977C50.5384 15.6818 50.7467 15.3807 50.8906 14.9943C51.0384 14.608 51.1122 14.1553 51.1122 13.6364C51.1122 13.1174 51.0402 12.6667 50.8963 12.2841C50.7524 11.9015 50.544 11.6061 50.2713 11.3977C49.9986 11.1894 49.6671 11.0852 49.277 11.0852C48.8793 11.0852 48.544 11.1932 48.2713 11.4091C47.9986 11.625 47.7921 11.9242 47.652 12.3068C47.5118 12.6894 47.4418 13.1326 47.4418 13.6364C47.4418 14.1439 47.5118 14.5928 47.652 14.983C47.7959 15.3693 48.0024 15.6723 48.2713 15.892C48.544 16.108 48.8793 16.2159 49.277 16.2159ZM59.4432 18.1705C58.5455 18.1705 57.7727 17.9886 57.125 17.625C56.4811 17.2576 55.9848 16.7386 55.6364 16.0682C55.2879 15.3939 55.1136 14.5966 55.1136 13.6761C55.1136 12.7784 55.2879 11.9905 55.6364 11.3125C55.9848 10.6345 56.4754 10.1061 57.108 9.72727C57.7443 9.34848 58.4905 9.15909 59.3466 9.15909C59.9223 9.15909 60.4583 9.25189 60.9545 9.4375C61.4545 9.61932 61.8902 9.89394 62.2614 10.2614C62.6364 10.6288 62.928 11.0909 63.1364 11.6477C63.3447 12.2008 63.4489 12.8485 63.4489 13.5909V14.2557H56.0795V12.7557H61.1705C61.1705 12.4072 61.0947 12.0985 60.9432 11.8295C60.7917 11.5606 60.5814 11.3504 60.3125 11.1989C60.0473 11.0436 59.7386 10.9659 59.3864 10.9659C59.0189 10.9659 58.6932 11.0511 58.4091 11.2216C58.1288 11.3883 57.9091 11.6136 57.75 11.8977C57.5909 12.178 57.5095 12.4905 57.5057 12.8352V14.2614C57.5057 14.6932 57.5852 15.0663 57.7443 15.3807C57.9072 15.6951 58.1364 15.9375 58.4318 16.108C58.7273 16.2784 59.0777 16.3636 59.483 16.3636C59.7519 16.3636 59.9981 16.3258 60.2216 16.25C60.4451 16.1742 60.6364 16.0606 60.7955 15.9091C60.9545 15.7576 61.0758 15.572 61.1591 15.3523L63.3977 15.5C63.2841 16.0379 63.0511 16.5076 62.6989 16.9091C62.3504 17.3068 61.8996 17.6174 61.3466 17.8409C60.7973 18.0606 60.1629 18.1705 59.4432 18.1705ZM68.9716 18.1705C68.089 18.1705 67.3258 17.983 66.6818 17.608C66.0417 17.2292 65.5473 16.7027 65.1989 16.0284C64.8504 15.3504 64.6761 14.5644 64.6761 13.6705C64.6761 12.7689 64.8504 11.9811 65.1989 11.3068C65.5473 10.6288 66.0417 10.1023 66.6818 9.72727C67.3258 9.34848 68.089 9.15909 68.9716 9.15909C69.8542 9.15909 70.6155 9.34848 71.2557 9.72727C71.8996 10.1023 72.3958 10.6288 72.7443 11.3068C73.0928 11.9811 73.267 12.7689 73.267 13.6705C73.267 14.5644 73.0928 15.3504 72.7443 16.0284C72.3958 16.7027 71.8996 17.2292 71.2557 17.608C70.6155 17.983 69.8542 18.1705 68.9716 18.1705ZM68.983 16.2955C69.3845 16.2955 69.7197 16.1818 69.9886 15.9545C70.2576 15.7235 70.4602 15.4091 70.5966 15.0114C70.7367 14.6136 70.8068 14.161 70.8068 13.6534C70.8068 13.1458 70.7367 12.6932 70.5966 12.2955C70.4602 11.8977 70.2576 11.5833 69.9886 11.3523C69.7197 11.1212 69.3845 11.0057 68.983 11.0057C68.5777 11.0057 68.2367 11.1212 67.9602 11.3523C67.6875 11.5833 67.4811 11.8977 67.3409 12.2955C67.2045 12.6932 67.1364 13.1458 67.1364 13.6534C67.1364 14.161 67.2045 14.6136 67.3409 15.0114C67.4811 15.4091 67.6875 15.7235 67.9602 15.9545C68.2367 16.1818 68.5777 16.2955 68.983 16.2955ZM84.902 9.71023C84.8565 9.25189 84.6615 8.89583 84.3168 8.64205C83.9721 8.38826 83.5043 8.26136 82.9134 8.26136C82.5118 8.26136 82.1728 8.31818 81.8963 8.43182C81.6198 8.54167 81.4077 8.69508 81.2599 8.89205C81.116 9.08902 81.044 9.3125 81.044 9.5625C81.0365 9.77083 81.08 9.95265 81.1747 10.108C81.2732 10.2633 81.4077 10.3977 81.5781 10.5114C81.7486 10.6212 81.9455 10.7178 82.169 10.8011C82.3925 10.8807 82.6312 10.9489 82.8849 11.0057L83.9304 11.2557C84.438 11.3693 84.9039 11.5208 85.3281 11.7102C85.7524 11.8996 86.1198 12.1326 86.4304 12.4091C86.741 12.6856 86.9815 13.0114 87.152 13.3864C87.3262 13.7614 87.4152 14.1913 87.419 14.6761C87.4152 15.3883 87.2334 16.0057 86.8736 16.5284C86.5175 17.0473 86.0024 17.4508 85.3281 17.7386C84.6577 18.0227 83.849 18.1648 82.902 18.1648C81.9626 18.1648 81.1444 18.0208 80.4474 17.733C79.7543 17.4451 79.2126 17.0189 78.8224 16.4545C78.4361 15.8864 78.2334 15.1837 78.2145 14.3466H80.5952C80.6217 14.7367 80.7334 15.0625 80.9304 15.3239C81.1312 15.5814 81.3982 15.7765 81.7315 15.9091C82.0687 16.0379 82.4493 16.1023 82.8736 16.1023C83.2902 16.1023 83.652 16.0417 83.9588 15.9205C84.2694 15.7992 84.5099 15.6307 84.6804 15.4148C84.8509 15.1989 84.9361 14.9508 84.9361 14.6705C84.9361 14.4091 84.8584 14.1894 84.7031 14.0114C84.5516 13.8333 84.3281 13.6818 84.0327 13.5568C83.741 13.4318 83.383 13.3182 82.9588 13.2159L81.6918 12.8977C80.7107 12.6591 79.9361 12.286 79.3679 11.7784C78.7997 11.2708 78.5175 10.5871 78.5213 9.72727C78.5175 9.02273 78.705 8.4072 79.0838 7.88068C79.4664 7.35417 79.991 6.94318 80.6577 6.64773C81.3243 6.35227 82.0819 6.20455 82.9304 6.20455C83.794 6.20455 84.5478 6.35227 85.1918 6.64773C85.8395 6.94318 86.3433 7.35417 86.7031 7.88068C87.063 8.4072 87.2486 9.01705 87.2599 9.71023H84.902ZM94.625 14.2841V9.27273H97.0455V18H94.7216V16.4148H94.6307C94.4337 16.9261 94.1061 17.3371 93.6477 17.6477C93.1932 17.9583 92.6383 18.1136 91.983 18.1136C91.3996 18.1136 90.8864 17.9811 90.4432 17.7159C90 17.4508 89.6534 17.0739 89.4034 16.5852C89.1572 16.0966 89.0322 15.5114 89.0284 14.8295V9.27273H91.4489V14.3977C91.4527 14.9129 91.5909 15.3201 91.8636 15.6193C92.1364 15.9186 92.5019 16.0682 92.9602 16.0682C93.2519 16.0682 93.5246 16.0019 93.7784 15.8693C94.0322 15.733 94.2367 15.5322 94.392 15.267C94.5511 15.0019 94.6288 14.6742 94.625 14.2841ZM98.9815 18V9.27273H101.288V10.8125H101.391C101.572 10.3011 101.875 9.89773 102.3 9.60227C102.724 9.30682 103.232 9.15909 103.822 9.15909C104.421 9.15909 104.93 9.30871 105.351 9.60795C105.771 9.90341 106.052 10.3049 106.192 10.8125H106.283C106.461 10.3125 106.783 9.91288 107.249 9.61364C107.718 9.31061 108.273 9.15909 108.913 9.15909C109.728 9.15909 110.389 9.41856 110.896 9.9375C111.408 10.4527 111.663 11.1837 111.663 12.1307V18H109.249V12.608C109.249 12.1231 109.12 11.7595 108.862 11.517C108.605 11.2746 108.283 11.1534 107.896 11.1534C107.457 11.1534 107.114 11.2936 106.868 11.5739C106.622 11.8504 106.499 12.2159 106.499 12.6705V18H104.152V12.5568C104.152 12.1288 104.029 11.7879 103.783 11.5341C103.54 11.2803 103.22 11.1534 102.822 11.1534C102.554 11.1534 102.311 11.2216 102.095 11.358C101.883 11.4905 101.714 11.678 101.589 11.9205C101.464 12.1591 101.402 12.4394 101.402 12.7614V18H98.9815ZM113.575 18V9.27273H115.882V10.8125H115.984C116.166 10.3011 116.469 9.89773 116.893 9.60227C117.318 9.30682 117.825 9.15909 118.416 9.15909C119.015 9.15909 119.524 9.30871 119.945 9.60795C120.365 9.90341 120.645 10.3049 120.786 10.8125H120.876C121.054 10.3125 121.376 9.91288 121.842 9.61364C122.312 9.31061 122.867 9.15909 123.507 9.15909C124.321 9.15909 124.982 9.41856 125.49 9.9375C126.001 10.4527 126.257 11.1837 126.257 12.1307V18H123.842V12.608C123.842 12.1231 123.714 11.7595 123.456 11.517C123.198 11.2746 122.876 11.1534 122.49 11.1534C122.051 11.1534 121.708 11.2936 121.462 11.5739C121.215 11.8504 121.092 12.2159 121.092 12.6705V18H118.746V12.5568C118.746 12.1288 118.623 11.7879 118.376 11.5341C118.134 11.2803 117.814 11.1534 117.416 11.1534C117.147 11.1534 116.905 11.2216 116.689 11.358C116.477 11.4905 116.308 11.678 116.183 11.9205C116.058 12.1591 115.996 12.4394 115.996 12.7614V18H113.575ZM130.658 18.1648C130.101 18.1648 129.605 18.0682 129.169 17.875C128.733 17.678 128.389 17.3883 128.135 17.0057C127.885 16.6193 127.76 16.1383 127.76 15.5625C127.76 15.0777 127.849 14.6705 128.027 14.3409C128.205 14.0114 128.447 13.7462 128.754 13.5455C129.061 13.3447 129.41 13.1932 129.8 13.0909C130.194 12.9886 130.607 12.9167 131.038 12.875C131.546 12.822 131.955 12.7727 132.266 12.7273C132.576 12.678 132.802 12.6061 132.942 12.5114C133.082 12.4167 133.152 12.2765 133.152 12.0909V12.0568C133.152 11.697 133.038 11.4186 132.811 11.2216C132.588 11.0246 132.269 10.9261 131.857 10.9261C131.421 10.9261 131.074 11.0227 130.817 11.2159C130.559 11.4053 130.389 11.6439 130.305 11.9318L128.067 11.75C128.18 11.2197 128.404 10.7614 128.737 10.375C129.071 9.98485 129.5 9.68561 130.027 9.47727C130.557 9.26515 131.171 9.15909 131.868 9.15909C132.353 9.15909 132.817 9.21591 133.26 9.32955C133.707 9.44318 134.103 9.61932 134.447 9.85795C134.796 10.0966 135.071 10.4034 135.271 10.7784C135.472 11.1496 135.572 11.5947 135.572 12.1136V18H133.277V16.7898H133.209C133.069 17.0625 132.881 17.303 132.646 17.5114C132.411 17.7159 132.129 17.8769 131.8 17.9943C131.47 18.108 131.089 18.1648 130.658 18.1648ZM131.351 16.4943C131.707 16.4943 132.021 16.4242 132.294 16.2841C132.567 16.1402 132.781 15.947 132.936 15.7045C133.091 15.4621 133.169 15.1875 133.169 14.8807V13.9545C133.093 14.0038 132.989 14.0492 132.857 14.0909C132.728 14.1288 132.582 14.1648 132.419 14.1989C132.256 14.2292 132.093 14.2576 131.93 14.2841C131.768 14.3068 131.62 14.3277 131.487 14.3466C131.203 14.3883 130.955 14.4545 130.743 14.5455C130.531 14.6364 130.366 14.7595 130.249 14.9148C130.131 15.0663 130.072 15.2557 130.072 15.483C130.072 15.8125 130.192 16.0644 130.43 16.2386C130.673 16.4091 130.98 16.4943 131.351 16.4943ZM137.45 18V9.27273H139.797V10.7955H139.888C140.047 10.2538 140.314 9.8447 140.689 9.56818C141.064 9.28788 141.496 9.14773 141.984 9.14773C142.106 9.14773 142.236 9.1553 142.376 9.17045C142.517 9.18561 142.64 9.20644 142.746 9.23295V11.3807C142.632 11.3466 142.475 11.3163 142.274 11.2898C142.073 11.2633 141.89 11.25 141.723 11.25C141.367 11.25 141.049 11.3277 140.768 11.483C140.492 11.6345 140.272 11.8466 140.109 12.1193C139.95 12.392 139.871 12.7064 139.871 13.0625V18H137.45ZM145.757 21.2727C145.45 21.2727 145.162 21.2481 144.893 21.1989C144.628 21.1534 144.409 21.0947 144.234 21.0227L144.78 19.2159C145.064 19.303 145.32 19.3504 145.547 19.358C145.778 19.3655 145.977 19.3125 146.143 19.1989C146.314 19.0852 146.452 18.892 146.558 18.6193L146.7 18.25L143.57 9.27273H146.115L147.922 15.6818H148.013L149.837 9.27273H152.399L149.007 18.9432C148.844 19.4129 148.623 19.822 148.342 20.1705C148.066 20.5227 147.715 20.7936 147.291 20.983C146.867 21.1761 146.356 21.2727 145.757 21.2727Z" fill="black"/>
<defs>
<clipPath id="clip0_104_9">
<rect width="24" height="24" fill="white"/>
</clipPath>
</defs>
</svg>
