<svg width="160" height="24" viewBox="0 0 160 24" fill="none" xmlns="http://www.w3.org/2000/svg">
<g clip-path="url(#clip0_104_9)">
<path d="M6.94 14.036C6.707 14.66 6.51 15.236 6.334 15.819C7.294 15.122 8.435 14.68 9.752 14.515C12.265 14.201 14.498 12.542 15.628 10.457L14.172 9.002L15.585 7.587L16.585 6.586C17.015 6.156 17.5 5.362 18.013 4.218C12.42 5.085 8.995 8.51 6.939 14.036H6.94ZM17 9.001L18 10C17 13 14 16 10 16.5C7.331 16.834 5.664 18.667 4.998 22H3C4 16 6 2 21 2C20 4.997 19.002 6.996 18.003 7.997L17 9.001Z" fill="#374151"/>
</g>
<path d="M31.017 18H28.3807L32.3977 6.36364H35.5682L39.5795 18H36.9432L34.0284 9.02273H33.9375L31.017 18ZM30.8523 13.4261H37.0795V15.3466H30.8523V13.4261ZM40.9347 18V9.27273H43.2812V10.7955H43.3722C43.5313 10.2538 43.7983 9.8447 44.1733 9.56818C44.5483 9.28788 44.9801 9.14773 45.4688 9.14773C45.59 9.14773 45.7206 9.1553 45.8608 9.17045C46.0009 9.18561 46.1241 9.20644 46.2301 9.23295V11.3807C46.1165 11.3466 45.9593 11.3163 45.7585 11.2898C45.5578 11.2633 45.3741 11.25 45.2074 11.25C44.8513 11.25 44.5331 11.3277 44.2528 11.483C43.9763 11.6345 43.7566 11.8466 43.5938 12.1193C43.4347 12.392 43.3551 12.7064 43.3551 13.0625V18H40.9347ZM52.5611 9.27273V11.0909H47.3054V9.27273H52.5611ZM48.4986 7.18182H50.919V15.3182C50.919 15.5417 50.9531 15.7159 51.0213 15.8409C51.0895 15.9621 51.1842 16.0473 51.3054 16.0966C51.4304 16.1458 51.5743 16.1705 51.7372 16.1705C51.8509 16.1705 51.9645 16.161 52.0781 16.142C52.1918 16.1193 52.2789 16.1023 52.3395 16.0909L52.7202 17.892C52.599 17.9299 52.4285 17.9735 52.2088 18.0227C51.9891 18.0758 51.7221 18.108 51.4077 18.1193C50.8243 18.142 50.313 18.0644 49.8736 17.8864C49.438 17.7083 49.099 17.4318 48.8565 17.0568C48.6141 16.6818 48.4948 16.2083 48.4986 15.6364V7.18182ZM54.1378 18V9.27273H56.5582V18H54.1378ZM55.3537 8.14773C54.9938 8.14773 54.6851 8.02841 54.4276 7.78977C54.1738 7.54735 54.0469 7.25758 54.0469 6.92045C54.0469 6.58712 54.1738 6.30114 54.4276 6.0625C54.6851 5.82008 54.9938 5.69886 55.3537 5.69886C55.7135 5.69886 56.0204 5.82008 56.2741 6.0625C56.5317 6.30114 56.6605 6.58712 56.6605 6.92045C56.6605 7.25758 56.5317 7.54735 56.2741 7.78977C56.0204 8.02841 55.7135 8.14773 55.3537 8.14773ZM62.4403 18.1705C61.5464 18.1705 60.7775 17.9811 60.1335 17.6023C59.4934 17.2197 59.0009 16.6894 58.6562 16.0114C58.3153 15.3333 58.1449 14.553 58.1449 13.6705C58.1449 12.7765 58.3172 11.9924 58.6619 11.3182C59.0104 10.6402 59.5047 10.1117 60.1449 9.73295C60.785 9.35038 61.5464 9.15909 62.429 9.15909C63.1903 9.15909 63.857 9.29735 64.429 9.57386C65.0009 9.85038 65.4536 10.2386 65.7869 10.7386C66.1203 11.2386 66.304 11.8258 66.3381 12.5H64.054C63.9896 12.0644 63.8191 11.714 63.5426 11.4489C63.2699 11.1799 62.9119 11.0455 62.4688 11.0455C62.0938 11.0455 61.7661 11.1477 61.4858 11.3523C61.2093 11.553 60.9934 11.8466 60.8381 12.233C60.6828 12.6193 60.6051 13.0871 60.6051 13.6364C60.6051 14.1932 60.6809 14.6667 60.8324 15.0568C60.9877 15.447 61.2055 15.7443 61.4858 15.9489C61.7661 16.1534 62.0938 16.2557 62.4688 16.2557C62.7453 16.2557 62.9934 16.1989 63.2131 16.0852C63.4366 15.9716 63.6203 15.8068 63.7642 15.5909C63.9119 15.3712 64.0085 15.108 64.054 14.8011H66.3381C66.3002 15.4678 66.1184 16.0549 65.7926 16.5625C65.4706 17.0663 65.0256 17.4602 64.4574 17.7443C63.8892 18.0284 63.2169 18.1705 62.4403 18.1705ZM70.3082 6.36364V18H67.8878V6.36364H70.3082ZM76.2244 18.1705C75.3267 18.1705 74.554 17.9886 73.9062 17.625C73.2623 17.2576 72.7661 16.7386 72.4176 16.0682C72.0691 15.3939 71.8949 14.5966 71.8949 13.6761C71.8949 12.7784 72.0691 11.9905 72.4176 11.3125C72.7661 10.6345 73.2566 10.1061 73.8892 9.72727C74.5256 9.34848 75.2718 9.15909 76.1278 9.15909C76.7036 9.15909 77.2396 9.25189 77.7358 9.4375C78.2358 9.61932 78.6714 9.89394 79.0426 10.2614C79.4176 10.6288 79.7093 11.0909 79.9176 11.6477C80.1259 12.2008 80.2301 12.8485 80.2301 13.5909V14.2557H72.8608V12.7557H77.9517C77.9517 12.4072 77.8759 12.0985 77.7244 11.8295C77.5729 11.5606 77.3627 11.3504 77.0938 11.1989C76.8286 11.0436 76.5199 10.9659 76.1676 10.9659C75.8002 10.9659 75.4744 11.0511 75.1903 11.2216C74.91 11.3883 74.6903 11.6136 74.5312 11.8977C74.3722 12.178 74.2907 12.4905 74.2869 12.8352V14.2614C74.2869 14.6932 74.3665 15.0663 74.5256 15.3807C74.6884 15.6951 74.9176 15.9375 75.2131 16.108C75.5085 16.2784 75.8589 16.3636 76.2642 16.3636C76.5331 16.3636 76.7794 16.3258 77.0028 16.25C77.2263 16.1742 77.4176 16.0606 77.5767 15.9091C77.7358 15.7576 77.857 15.572 77.9403 15.3523L80.179 15.5C80.0653 16.0379 79.8324 16.5076 79.4801 16.9091C79.1316 17.3068 78.6809 17.6174 78.1278 17.8409C77.5786 18.0606 76.9441 18.1705 76.2244 18.1705ZM91.8707 9.71023C91.8253 9.25189 91.6302 8.89583 91.2855 8.64205C90.9408 8.38826 90.473 8.26136 89.8821 8.26136C89.4806 8.26136 89.1416 8.31818 88.8651 8.43182C88.5885 8.54167 88.3764 8.69508 88.2287 8.89205C88.0848 9.08902 88.0128 9.3125 88.0128 9.5625C88.0052 9.77083 88.0488 9.95265 88.1435 10.108C88.242 10.2633 88.3764 10.3977 88.5469 10.5114C88.7173 10.6212 88.9143 10.7178 89.1378 10.8011C89.3613 10.8807 89.5999 10.9489 89.8537 11.0057L90.8991 11.2557C91.4067 11.3693 91.8726 11.5208 92.2969 11.7102C92.7211 11.8996 93.0885 12.1326 93.3991 12.4091C93.7098 12.6856 93.9503 13.0114 94.1207 13.3864C94.295 13.7614 94.384 14.1913 94.3878 14.6761C94.384 15.3883 94.2022 16.0057 93.8423 16.5284C93.4863 17.0473 92.9711 17.4508 92.2969 17.7386C91.6264 18.0227 90.8177 18.1648 89.8707 18.1648C88.9313 18.1648 88.1132 18.0208 87.4162 17.733C86.723 17.4451 86.1813 17.0189 85.7912 16.4545C85.4048 15.8864 85.2022 15.1837 85.1832 14.3466H87.5639C87.5904 14.7367 87.7022 15.0625 87.8991 15.3239C88.0999 15.5814 88.367 15.7765 88.7003 15.9091C89.0374 16.0379 89.4181 16.1023 89.8423 16.1023C90.259 16.1023 90.6207 16.0417 90.9276 15.9205C91.2382 15.7992 91.4787 15.6307 91.6491 15.4148C91.8196 15.1989 91.9048 14.9508 91.9048 14.6705C91.9048 14.4091 91.8272 14.1894 91.6719 14.0114C91.5204 13.8333 91.2969 13.6818 91.0014 13.5568C90.7098 13.4318 90.3518 13.3182 89.9276 13.2159L88.6605 12.8977C87.6795 12.6591 86.9048 12.286 86.3366 11.7784C85.7685 11.2708 85.4863 10.5871 85.4901 9.72727C85.4863 9.02273 85.6738 8.4072 86.0526 7.88068C86.4351 7.35417 86.9598 6.94318 87.6264 6.64773C88.2931 6.35227 89.0507 6.20455 89.8991 6.20455C90.7628 6.20455 91.5166 6.35227 92.1605 6.64773C92.8082 6.94318 93.312 7.35417 93.6719 7.88068C94.0317 8.4072 94.2173 9.01705 94.2287 9.71023H91.8707ZM101.594 14.2841V9.27273H104.014V18H101.69V16.4148H101.599C101.402 16.9261 101.075 17.3371 100.616 17.6477C100.162 17.9583 99.607 18.1136 98.9517 18.1136C98.3684 18.1136 97.8551 17.9811 97.4119 17.7159C96.9688 17.4508 96.6222 17.0739 96.3722 16.5852C96.1259 16.0966 96.0009 15.5114 95.9972 14.8295V9.27273H98.4176V14.3977C98.4214 14.9129 98.5597 15.3201 98.8324 15.6193C99.1051 15.9186 99.4706 16.0682 99.929 16.0682C100.221 16.0682 100.493 16.0019 100.747 15.8693C101.001 15.733 101.205 15.5322 101.361 15.267C101.52 15.0019 101.598 14.6742 101.594 14.2841ZM105.95 18V9.27273H108.257V10.8125H108.359C108.541 10.3011 108.844 9.89773 109.268 9.60227C109.693 9.30682 110.2 9.15909 110.791 9.15909C111.39 9.15909 111.899 9.30871 112.32 9.60795C112.74 9.90341 113.02 10.3049 113.161 10.8125H113.251C113.429 10.3125 113.751 9.91288 114.217 9.61364C114.687 9.31061 115.242 9.15909 115.882 9.15909C116.696 9.15909 117.357 9.41856 117.865 9.9375C118.376 10.4527 118.632 11.1837 118.632 12.1307V18H116.217V12.608C116.217 12.1231 116.089 11.7595 115.831 11.517C115.573 11.2746 115.251 11.1534 114.865 11.1534C114.426 11.1534 114.083 11.2936 113.837 11.5739C113.59 11.8504 113.467 12.2159 113.467 12.6705V18H111.121V12.5568C111.121 12.1288 110.998 11.7879 110.751 11.5341C110.509 11.2803 110.189 11.1534 109.791 11.1534C109.522 11.1534 109.28 11.2216 109.064 11.358C108.852 11.4905 108.683 11.678 108.558 11.9205C108.433 12.1591 108.371 12.4394 108.371 12.7614V18H105.95ZM120.544 18V9.27273H122.851V10.8125H122.953C123.135 10.3011 123.438 9.89773 123.862 9.60227C124.286 9.30682 124.794 9.15909 125.385 9.15909C125.983 9.15909 126.493 9.30871 126.913 9.60795C127.334 9.90341 127.614 10.3049 127.754 10.8125H127.845C128.023 10.3125 128.345 9.91288 128.811 9.61364C129.281 9.31061 129.836 9.15909 130.476 9.15909C131.29 9.15909 131.951 9.41856 132.459 9.9375C132.97 10.4527 133.226 11.1837 133.226 12.1307V18H130.811V12.608C130.811 12.1231 130.682 11.7595 130.425 11.517C130.167 11.2746 129.845 11.1534 129.459 11.1534C129.019 11.1534 128.677 11.2936 128.43 11.5739C128.184 11.8504 128.061 12.2159 128.061 12.6705V18H125.714V12.5568C125.714 12.1288 125.591 11.7879 125.345 11.5341C125.103 11.2803 124.783 11.1534 124.385 11.1534C124.116 11.1534 123.874 11.2216 123.658 11.358C123.446 11.4905 123.277 11.678 123.152 11.9205C123.027 12.1591 122.964 12.4394 122.964 12.7614V18H120.544ZM137.626 18.1648C137.07 18.1648 136.573 18.0682 136.138 17.875C135.702 17.678 135.357 17.3883 135.104 17.0057C134.854 16.6193 134.729 16.1383 134.729 15.5625C134.729 15.0777 134.818 14.6705 134.996 14.3409C135.174 14.0114 135.416 13.7462 135.723 13.5455C136.03 13.3447 136.378 13.1932 136.768 13.0909C137.162 12.9886 137.575 12.9167 138.007 12.875C138.515 12.822 138.924 12.7727 139.234 12.7273C139.545 12.678 139.77 12.6061 139.911 12.5114C140.051 12.4167 140.121 12.2765 140.121 12.0909V12.0568C140.121 11.697 140.007 11.4186 139.78 11.2216C139.556 11.0246 139.238 10.9261 138.825 10.9261C138.39 10.9261 138.043 11.0227 137.786 11.2159C137.528 11.4053 137.357 11.6439 137.274 11.9318L135.036 11.75C135.149 11.2197 135.373 10.7614 135.706 10.375C136.039 9.98485 136.469 9.68561 136.996 9.47727C137.526 9.26515 138.14 9.15909 138.837 9.15909C139.321 9.15909 139.786 9.21591 140.229 9.32955C140.676 9.44318 141.071 9.61932 141.416 9.85795C141.765 10.0966 142.039 10.4034 142.24 10.7784C142.441 11.1496 142.541 11.5947 142.541 12.1136V18H140.246V16.7898H140.178C140.037 17.0625 139.85 17.303 139.615 17.5114C139.38 17.7159 139.098 17.8769 138.768 17.9943C138.439 18.108 138.058 18.1648 137.626 18.1648ZM138.32 16.4943C138.676 16.4943 138.99 16.4242 139.263 16.2841C139.536 16.1402 139.75 15.947 139.905 15.7045C140.06 15.4621 140.138 15.1875 140.138 14.8807V13.9545C140.062 14.0038 139.958 14.0492 139.825 14.0909C139.696 14.1288 139.551 14.1648 139.388 14.1989C139.225 14.2292 139.062 14.2576 138.899 14.2841C138.736 14.3068 138.589 14.3277 138.456 14.3466C138.172 14.3883 137.924 14.4545 137.712 14.5455C137.5 14.6364 137.335 14.7595 137.217 14.9148C137.1 15.0663 137.041 15.2557 137.041 15.483C137.041 15.8125 137.161 16.0644 137.399 16.2386C137.642 16.4091 137.948 16.4943 138.32 16.4943ZM144.419 18V9.27273H146.766V10.7955H146.857C147.016 10.2538 147.283 9.8447 147.658 9.56818C148.033 9.28788 148.464 9.14773 148.953 9.14773C149.074 9.14773 149.205 9.1553 149.345 9.17045C149.485 9.18561 149.608 9.20644 149.714 9.23295V11.3807C149.601 11.3466 149.444 11.3163 149.243 11.2898C149.042 11.2633 148.858 11.25 148.692 11.25C148.336 11.25 148.018 11.3277 147.737 11.483C147.461 11.6345 147.241 11.8466 147.078 12.1193C146.919 12.392 146.839 12.7064 146.839 13.0625V18H144.419ZM152.726 21.2727C152.419 21.2727 152.131 21.2481 151.862 21.1989C151.597 21.1534 151.377 21.0947 151.203 21.0227L151.749 19.2159C152.033 19.303 152.288 19.3504 152.516 19.358C152.747 19.3655 152.946 19.3125 153.112 19.1989C153.283 19.0852 153.421 18.892 153.527 18.6193L153.669 18.25L150.538 9.27273H153.084L154.891 15.6818H154.982L156.805 9.27273H159.368L155.976 18.9432C155.813 19.4129 155.591 19.822 155.311 20.1705C155.035 20.5227 154.684 20.7936 154.26 20.983C153.836 21.1761 153.324 21.2727 152.726 21.2727Z" fill="black"/>
<defs>
<clipPath id="clip0_104_9">
<rect width="24" height="24" fill="white"/>
</clipPath>
</defs>
</svg>
